<?xml version="1.0" standalone="no"?>
<!DOCTYPE svg PUBLIC "-//W3C//DTD SVG 20010904//EN"
 "http://www.w3.org/TR/2001/REC-SVG-20010904/DTD/svg10.dtd">
<svg version="1.0" xmlns="http://www.w3.org/2000/svg"
 width="996.000000pt" height="996.000000pt" viewBox="0 0 996.000000 996.000000"
 preserveAspectRatio="xMidYMid meet">
<metadata>
Created by potrace 1.14, written by Peter Selinger 2001-2017
</metadata>
<g transform="translate(0.000000,996.000000) scale(0.100000,-0.100000)"
fill="#000000" stroke="none">
<path d="M7387 9824 c-1 -1 -51 -4 -112 -8 -60 -3 -121 -8 -135 -11 -13 -2
-42 -7 -65 -10 -22 -3 -48 -8 -57 -11 -9 -3 -25 -7 -35 -9 -162 -33 -436 -143
-529 -212 -17 -13 -34 -23 -37 -23 -6 0 -137 -89 -147 -100 -3 -3 -32 -27 -65
-55 -157 -132 -345 -359 -411 -498 -10 -20 -21 -37 -26 -37 -4 0 -8 -5 -8 -12
0 -6 -14 -41 -31 -77 -18 -36 -35 -75 -40 -86 -13 -31 -32 -79 -35 -90 -2 -5
-5 -19 -9 -30 -26 -92 -64 -248 -69 -285 -3 -25 -9 -67 -12 -95 -4 -27 -7
-108 -8 -180 l-1 -130 -75 -1 c-80 -2 -170 -9 -235 -19 -53 -9 -216 -45 -225
-50 -3 -2 -17 -6 -31 -9 -33 -6 -141 -46 -156 -59 -7 -5 -13 -7 -13 -3 0 4
-57 -23 -126 -59 -125 -64 -281 -169 -359 -240 -22 -20 -49 -45 -60 -54 -22
-19 -127 -131 -163 -174 -51 -63 -152 -218 -195 -299 -74 -143 -151 -362 -172
-491 -3 -18 -8 -45 -11 -60 -15 -74 -24 -370 -13 -477 l4 -45 -440 -292 c-242
-160 -445 -296 -452 -302 -7 -6 -24 -16 -38 -23 -14 -6 -25 -14 -25 -17 0 -4
-20 -17 -45 -31 -25 -14 -45 -28 -45 -32 0 -5 -4 -8 -9 -8 -5 0 -85 -51 -178
-112 -94 -62 -177 -117 -185 -123 -83 -54 -324 -215 -337 -224 -80 -57 -455
-301 -462 -301 -5 0 -9 -5 -9 -10 0 -6 -8 -14 -18 -18 -10 -4 -210 -135 -445
-291 -270 -179 -429 -291 -434 -305 -4 -11 -8 -25 -9 -31 -1 -5 -12 -57 -24
-115 -12 -58 -24 -114 -25 -125 -2 -11 -4 -22 -5 -25 -1 -3 -3 -9 -4 -15 -1
-5 -6 -27 -10 -48 -8 -35 -5 -44 30 -95 22 -31 44 -64 51 -72 7 -8 38 -51 70
-95 32 -44 64 -81 70 -82 6 -1 23 -5 39 -8 16 -3 40 -8 54 -11 14 -2 36 -7 50
-11 14 -3 27 -7 30 -8 10 -2 86 -17 110 -21 14 -3 39 -9 55 -14 17 -5 79 -18
139 -30 l108 -22 59 27 c123 55 144 64 153 64 5 -1 12 3 15 8 3 5 25 17 48 27
23 10 41 21 41 25 -1 3 4 29 11 57 7 29 14 58 15 65 3 13 18 83 22 102 1 4 2
8 4 10 1 1 3 10 5 20 4 21 24 47 36 47 5 0 30 15 56 33 93 63 158 99 166 90 3
-3 19 -6 34 -8 26 -2 75 -9 148 -22 79 -13 68 -18 185 77 19 15 45 36 57 47
16 12 24 32 28 66 5 60 11 68 38 62 93 -20 93 -20 183 56 46 39 84 76 85 83 0
6 2 25 4 41 2 17 6 58 8 93 5 64 18 92 43 92 8 0 14 3 14 8 0 4 21 19 48 35
68 40 84 50 100 65 8 7 22 10 31 6 9 -3 32 -10 51 -14 19 -5 72 -18 117 -30
l82 -22 106 68 c58 38 113 74 123 79 9 6 64 42 122 80 58 38 114 68 125 68 11
-1 49 -12 85 -26 36 -14 92 -36 126 -48 l60 -23 49 35 c65 45 73 51 96 71 10
10 21 18 24 18 2 0 62 42 132 93 71 51 133 96 139 100 10 6 95 -48 102 -65 2
-5 8 -8 13 -8 5 0 28 -12 52 -27 23 -14 42 -25 42 -22 0 2 14 -5 30 -17 55
-38 241 -120 330 -145 121 -33 162 -43 230 -53 17 -3 50 -8 75 -13 55 -9 388
-11 450 -1 25 3 65 9 91 13 l45 7 60 -62 c32 -35 64 -68 70 -74 8 -8 5 -31
-13 -86 -13 -41 -26 -84 -28 -95 -3 -12 -14 -48 -25 -80 -11 -33 -20 -60 -19
-60 2 0 -50 -174 -58 -195 -3 -8 -8 -24 -10 -35 -2 -11 -12 -47 -22 -80 -11
-33 -29 -94 -41 -135 -12 -41 -25 -86 -30 -100 -9 -26 -101 -328 -105 -345 -7
-34 -19 -71 -24 -80 -3 -5 -6 -15 -7 -20 -1 -6 -48 -163 -104 -349 -56 -186
-103 -346 -105 -355 -2 -9 -25 -83 -50 -166 -25 -82 -57 -186 -70 -230 -13
-44 -47 -156 -75 -250 -29 -93 -64 -213 -80 -265 -48 -163 -78 -260 -125 -415
-26 -82 -47 -154 -49 -160 -1 -5 -8 -29 -15 -53 l-12 -42 88 -168 c48 -91 92
-176 96 -188 6 -17 31 -27 135 -54 70 -18 134 -35 142 -38 46 -16 111 -23 125
-12 12 9 178 96 335 176 63 33 118 64 122 69 4 6 8 7 8 2 0 -4 11 0 25 9 14 9
41 49 60 88 18 39 51 108 73 154 l40 83 -64 124 c-35 69 -64 132 -64 142 0 10
18 72 39 137 l39 120 89 52 c48 29 93 58 100 63 7 6 16 11 21 11 14 0 32 24
37 49 3 12 7 31 11 43 3 13 7 32 8 43 2 11 8 38 13 60 13 52 11 63 -21 113
-14 23 -26 44 -26 46 0 3 25 19 55 36 30 17 56 39 56 48 3 31 6 57 18 116 15
80 14 99 -6 122 -10 11 -22 28 -28 37 -5 9 -24 36 -41 59 -31 42 -31 45 -19
83 7 22 25 79 39 127 21 69 31 88 49 94 12 4 67 28 123 54 l101 48 36 114 c19
62 57 182 84 267 l48 153 139 47 c146 49 148 50 160 117 2 16 9 44 15 62 5 18
10 35 10 37 1 3 1 6 2 8 0 1 2 9 4 17 1 8 8 35 15 60 7 25 14 54 16 65 6 33
54 208 59 213 5 5 11 6 120 16 39 4 77 9 85 11 8 2 33 6 55 10 22 3 48 8 57
11 16 5 37 10 85 20 106 22 379 144 496 221 226 149 427 353 554 558 88 144
190 365 181 395 -1 3 4 15 11 28 7 13 14 31 16 40 2 9 13 59 25 111 71 318 51
656 -57 971 -33 96 -123 286 -170 356 l-36 54 37 36 c20 19 36 33 36 30 0 -3
24 20 53 51 28 31 64 69 79 84 68 71 258 350 258 378 0 6 9 25 20 44 24 40 61
132 95 232 71 214 100 465 82 710 -8 96 -10 112 -33 220 -8 39 -17 81 -20 95
-19 94 -152 419 -175 428 -5 2 -9 9 -9 15 0 17 -79 135 -156 232 -73 92 -153
177 -238 253 -55 49 -84 58 -33 10 31 -30 95 -102 140 -157 30 -38 104 -146
128 -187 54 -96 108 -204 129 -259 12 -33 26 -69 30 -80 28 -73 39 -105 35
-105 -2 0 2 -18 10 -40 8 -22 12 -40 9 -40 -2 0 0 -8 5 -18 5 -10 12 -40 16
-67 3 -26 7 -50 9 -54 17 -27 26 -495 12 -596 -15 -105 -26 -165 -37 -200 -71
-238 -90 -283 -195 -474 -12 -22 -20 -34 -104 -149 -60 -82 -241 -272 -259
-272 -28 0 -13 25 57 96 42 44 93 99 112 122 19 24 40 49 46 55 49 54 216 344
237 412 3 11 13 38 22 60 27 69 72 228 80 285 2 14 7 36 10 50 27 123 27 509
0 610 -2 8 -7 31 -10 50 -3 19 -10 49 -15 65 -5 17 -11 41 -14 55 -4 25 -46
154 -69 215 -38 96 -204 390 -236 415 -3 3 -19 23 -36 45 -81 109 -402 395
-444 395 -6 0 -11 3 -11 8 0 4 -10 12 -23 18 -12 7 -70 37 -128 67 -59 31
-110 53 -113 50 -3 -4 -6 -1 -6 5 0 7 -5 12 -12 12 -6 0 -48 13 -92 29 -106
37 -159 53 -188 56 -12 1 -24 4 -25 5 -8 8 -121 24 -238 35 -97 8 -155 12
-158 9z m368 -237 c17 -4 106 -18 120 -19 2 0 37 -9 77 -19 40 -11 78 -21 83
-23 147 -37 319 -128 445 -233 41 -35 190 -183 216 -216 94 -115 169 -231 214
-327 17 -36 36 -74 42 -85 16 -28 78 -205 72 -205 -2 0 0 -9 6 -19 9 -18 31
-111 44 -191 18 -111 24 -294 13 -425 -6 -65 -9 -88 -22 -155 -3 -14 -7 -34
-9 -45 -2 -11 -9 -40 -16 -65 -7 -25 -13 -49 -14 -55 -3 -16 -27 -88 -41 -120
-7 -16 -21 -50 -31 -75 -10 -25 -23 -48 -29 -52 -5 -4 -7 -8 -3 -8 4 0 -4 -21
-19 -47 -14 -27 -31 -57 -37 -68 -6 -11 -15 -23 -19 -26 -5 -3 -9 -10 -9 -15
-1 -8 -23 -42 -98 -148 -26 -37 -73 -89 -144 -160 l-68 -68 -57 54 c-105 102
-126 119 -237 194 -192 129 -403 222 -602 265 -31 7 -59 13 -62 14 -3 1 -30 5
-60 9 -30 5 -64 10 -75 13 -37 8 -320 10 -380 3 -132 -17 -170 -22 -176 -25
-3 -2 -30 22 -60 53 -30 31 -83 82 -118 112 -34 30 -69 61 -76 67 -55 51 -347
226 -370 222 -4 0 -17 6 -29 15 -31 20 -212 81 -303 101 -39 9 -73 22 -76 28
-10 29 5 271 22 349 6 24 12 54 14 68 25 139 116 367 204 514 65 107 153 218
257 321 126 126 199 183 361 282 66 40 315 148 315 137 0 -3 8 0 18 5 11 6 30
12 43 15 13 3 51 12 84 20 74 18 113 24 190 32 33 4 62 8 64 10 5 4 312 -4
336 -9z m-1041 -52 c-10 -8 -22 -15 -26 -15 -13 0 -133 -74 -208 -128 -193
-138 -350 -302 -476 -497 -22 -33 -41 -62 -44 -65 -11 -10 -118 -237 -130
-275 -7 -22 -17 -46 -23 -52 -5 -7 -7 -13 -3 -13 4 0 0 -13 -9 -30 -9 -16 -13
-30 -11 -30 3 0 1 -11 -4 -25 -5 -14 -12 -36 -14 -48 -2 -12 -11 -51 -19 -87
-9 -36 -19 -92 -22 -125 -4 -33 -9 -73 -11 -90 -14 -120 11 -378 47 -475 5
-14 10 -34 12 -45 2 -11 7 -28 11 -37 4 -9 9 -22 10 -30 2 -7 7 -22 11 -33 5
-11 17 -42 27 -70 69 -181 199 -379 352 -540 65 -68 76 -85 56 -85 -26 0 -209
214 -282 330 -123 194 -211 426 -244 640 -26 161 -24 451 2 571 3 13 7 35 10
49 47 237 181 522 336 715 68 86 269 273 359 335 118 81 375 217 293 155z
m-1131 -1858 c3 -23 9 -58 12 -78 l7 -36 -108 0 c-160 0 -252 -12 -390 -49
-341 -91 -596 -261 -824 -550 -79 -101 -171 -279 -225 -439 -18 -55 -17 -50
-40 -150 -35 -154 -40 -429 -10 -565 3 -14 8 -41 11 -60 7 -42 49 -179 72
-235 38 -92 126 -253 180 -328 75 -105 233 -265 308 -313 16 -10 33 -24 37
-31 4 -7 15 -13 22 -13 8 0 15 -4 15 -10 0 -5 5 -10 11 -10 6 0 23 -8 37 -18
33 -23 154 -89 165 -90 4 -1 28 -10 54 -22 26 -11 83 -31 127 -44 112 -33 158
-44 226 -52 25 -3 53 -7 62 -10 21 -6 253 -6 288 0 14 2 50 7 80 11 155 19
346 83 489 163 130 74 151 88 244 164 127 105 271 273 340 398 39 70 28 63
-19 -12 -21 -34 -44 -69 -51 -78 -6 -8 -26 -33 -43 -55 -54 -69 -161 -174
-239 -233 -42 -31 -78 -59 -81 -62 -8 -8 -80 -48 -164 -91 -104 -54 -274 -110
-376 -125 -19 -3 -52 -9 -73 -14 -43 -9 -352 -6 -407 4 -19 4 -57 12 -85 18
-27 7 -52 13 -55 13 -25 6 -98 29 -119 37 -14 6 -32 12 -40 14 -8 1 -55 23
-105 47 -229 111 -442 298 -581 511 -61 94 -142 264 -160 336 -2 8 -4 15 -5
15 -1 0 -3 7 -5 15 -2 8 -11 44 -20 80 -29 115 -38 196 -39 340 0 159 8 218
58 410 2 8 12 35 21 60 9 25 19 54 22 64 7 23 74 158 100 201 69 116 244 317
324 372 13 10 33 26 44 36 38 36 201 131 289 169 93 41 226 83 293 93 21 3 50
8 63 11 71 15 285 22 298 10 4 -4 8 -12 8 -17 1 -5 2 -10 4 -11 1 -2 3 -10 5
-18 17 -86 167 -408 213 -458 6 -7 12 -17 12 -22 0 -5 6 -15 13 -22 6 -7 32
-40 56 -72 43 -57 44 -60 25 -75 -73 -61 -130 -172 -137 -268 -4 -58 15 -149
44 -205 30 -59 112 -135 178 -165 76 -35 196 -40 276 -13 197 68 301 271 241
470 -22 74 -64 131 -145 200 -34 28 -125 60 -184 64 -46 3 -53 7 -83 47 -19
24 -34 50 -34 57 0 6 -3 12 -7 12 -5 0 -13 10 -19 23 -6 12 -29 56 -51 97 -43
82 -85 184 -113 273 -22 69 -19 70 85 31 39 -14 79 -29 90 -32 43 -12 225
-112 253 -139 7 -7 17 -13 21 -13 4 0 16 -8 27 -17 10 -10 35 -30 54 -44 64
-49 220 -210 220 -228 0 -6 4 -11 9 -11 4 0 28 -32 52 -71 60 -96 77 -116 38
-44 -39 72 -60 103 -118 175 -47 59 -230 240 -242 240 -4 0 -14 6 -21 13 -73
69 -265 175 -416 227 -51 18 -91 38 -90 44 1 6 -1 25 -5 41 -3 17 -9 50 -12
74 l-6 43 33 -6 c33 -6 142 -40 226 -71 181 -65 390 -203 552 -364 150 -147
249 -287 337 -471 56 -118 122 -320 128 -390 1 -14 4 -34 8 -45 24 -80 27
-411 3 -521 -2 -12 -7 -37 -10 -55 -4 -27 -27 -118 -50 -204 -18 -67 -123
-297 -138 -303 -5 -2 -8 -8 -8 -14 0 -16 -116 -180 -185 -261 -102 -120 -303
-286 -415 -342 -19 -10 -38 -22 -41 -27 -3 -5 -9 -9 -13 -9 -3 1 -20 -6 -37
-14 -48 -25 -189 -84 -189 -79 0 3 -10 -1 -22 -7 -27 -15 -198 -58 -258 -65
-25 -4 -64 -10 -87 -14 -86 -15 -407 -2 -493 20 -19 5 -50 12 -69 15 -19 3
-38 8 -43 11 -5 3 -20 8 -35 10 -47 9 -216 75 -293 116 -106 56 -141 77 -215
130 -49 36 -65 54 -66 73 -2 36 -3 43 -10 50 -4 3 -122 -78 -263 -180 -141
-102 -260 -185 -265 -185 -5 0 -62 20 -126 45 -64 25 -127 46 -138 47 -12 0
-86 -41 -164 -93 -336 -222 -313 -209 -364 -197 -24 6 -46 13 -48 14 -5 4 33
34 94 77 80 56 209 142 227 152 10 5 18 14 18 18 0 5 -15 -1 -32 -13 -18 -12
-41 -24 -50 -27 -10 -3 -18 -9 -18 -13 0 -5 -10 -12 -22 -16 -13 -4 -52 -24
-87 -45 -34 -22 -65 -39 -67 -39 -2 0 -32 -17 -66 -38 l-63 -38 -54 13 -53 14
-164 -107 c-153 -99 -164 -108 -165 -137 0 -18 -2 -45 -4 -62 -1 -16 -4 -52
-6 -78 -2 -41 -8 -53 -42 -83 -42 -38 -40 -38 -186 -13 -65 11 -66 10 -70 -39
-1 -17 -30 -37 -210 -149 -77 -47 -88 -51 -130 -47 -44 5 -51 2 -208 -98 -144
-91 -162 -106 -168 -135 -6 -31 -10 -34 -117 -98 -10 -5 -56 -34 -104 -62 -48
-29 -91 -53 -96 -53 -4 0 -8 -4 -8 -10 0 -5 -5 -10 -11 -10 -6 0 -31 -14 -56
-32 l-46 -31 -66 13 c-36 7 -104 21 -151 32 -47 11 -91 20 -97 21 -7 0 -13 4
-13 7 0 4 69 52 152 107 84 55 242 158 351 229 109 71 208 136 222 144 140 89
181 115 185 119 12 14 181 121 190 121 5 0 10 4 10 9 0 5 10 13 23 17 12 4 24
10 27 14 8 11 253 170 262 170 4 0 8 5 8 10 0 6 4 10 9 10 5 0 51 28 102 61
52 34 128 84 169 110 41 27 80 53 86 57 5 5 21 15 34 22 13 7 29 17 34 22 19
15 146 98 152 98 3 0 20 11 38 25 18 14 38 25 44 25 6 0 12 4 14 8 3 8 84 66
103 73 6 2 69 43 140 90 72 47 177 116 235 154 58 38 157 103 220 144 63 42
120 78 125 81 6 3 31 20 57 38 26 17 51 32 56 32 6 0 12 3 14 8 2 4 31 25 65
48 60 38 62 41 48 62 -14 19 -18 20 -33 7 -9 -8 -62 -44 -117 -79 -55 -36
-107 -70 -115 -76 -44 -31 -266 -174 -270 -175 -3 0 -16 -8 -30 -18 -14 -10
-90 -61 -170 -112 -80 -52 -161 -106 -182 -120 -20 -14 -41 -25 -47 -25 -6 0
-11 -4 -11 -8 0 -4 -15 -16 -32 -27 -18 -10 -86 -54 -151 -97 -66 -43 -120
-78 -121 -78 -3 0 -163 -105 -181 -118 -5 -4 -55 -36 -110 -71 -55 -36 -146
-95 -203 -133 -56 -37 -105 -68 -108 -68 -3 0 -10 -5 -17 -11 -23 -20 -270
-179 -278 -179 -5 0 -9 -4 -9 -9 0 -5 -8 -11 -17 -15 -18 -5 -54 -26 -63 -36
-12 -13 -302 -200 -309 -200 -5 0 -11 -3 -13 -7 -4 -11 -146 -103 -157 -103
-5 0 -11 -4 -13 -8 -2 -5 -34 -29 -73 -53 -38 -24 -71 -47 -73 -51 -2 -4 -7
-8 -12 -8 -4 0 -69 -40 -144 -90 -75 -49 -140 -90 -144 -90 -6 1 -77 94 -95
127 -5 7 44 44 130 99 76 49 152 99 169 111 17 13 36 23 42 23 7 0 12 5 12 10
0 6 6 10 14 10 8 0 16 3 18 8 2 4 35 27 73 52 39 25 72 48 73 52 2 5 7 8 11 8
7 0 87 50 161 100 8 6 47 30 85 55 39 24 77 49 85 55 17 11 690 450 785 511
33 22 65 42 70 47 6 4 42 27 80 52 39 25 75 48 80 53 31 23 167 107 174 107 5
0 11 4 13 8 3 9 93 72 102 72 6 0 97 61 106 70 3 3 39 27 80 52 41 26 146 93
232 150 87 57 256 167 377 246 l220 143 -20 32 c-10 18 -29 44 -41 59 l-23 27
-193 -127 c-159 -105 -526 -345 -647 -422 -49 -32 -66 -43 -133 -87 -35 -24
-67 -43 -72 -43 -4 0 -10 -3 -12 -8 -3 -6 -302 -204 -367 -242 -14 -8 -30 -19
-36 -23 -5 -5 -73 -49 -150 -99 -77 -50 -187 -122 -244 -160 -57 -37 -108 -68
-113 -68 -4 0 -8 -4 -8 -10 0 -5 -7 -10 -15 -10 -8 0 -15 -3 -15 -8 0 -4 -9
-12 -20 -17 -10 -6 -78 -48 -150 -95 -72 -47 -138 -89 -147 -95 -9 -5 -22 -14
-27 -18 -6 -5 -83 -55 -171 -112 -88 -57 -166 -109 -172 -115 -7 -6 -13 -7
-13 -3 0 4 -4 3 -8 -3 -4 -6 -47 -37 -97 -69 -49 -32 -126 -81 -170 -110 -117
-75 -109 -72 -101 -39 5 16 10 42 12 58 2 16 7 33 11 36 20 18 255 170 263
170 5 0 10 4 12 8 4 10 276 192 288 192 4 0 10 3 12 8 2 4 102 72 223 152 121
80 222 147 225 150 3 4 23 17 45 30 22 13 42 27 45 30 3 4 10 9 15 11 19 8
310 204 313 211 2 5 7 8 12 8 8 0 764 499 788 520 6 6 12 7 12 3 0 -4 4 -3 8
3 4 6 97 70 207 142 110 73 207 137 215 142 8 6 42 28 75 50 33 22 65 43 70
47 6 5 78 53 162 108 l152 100 -4 45 c-7 72 -13 109 -19 119 -4 5 -2 12 3 16
6 3 7 15 2 28 -6 17 -7 232 -1 232 0 0 3 25 6 55 2 30 7 66 10 80 3 14 7 37 9
53 13 90 71 267 123 377 27 56 110 207 124 225 5 6 31 42 60 80 67 92 233 257
330 328 42 31 81 57 87 57 5 0 11 4 13 9 3 9 87 57 181 103 98 49 262 104 367
123 14 3 38 7 53 11 48 10 78 13 182 19 54 3 100 7 102 8 1 2 18 1 37 -1 31
-4 34 -7 39 -45z m1857 -552 c14 -3 41 -8 60 -11 78 -12 240 -56 315 -85 95
-36 295 -138 295 -151 0 -4 6 -8 13 -8 30 0 217 -158 322 -272 49 -53 62 -68
128 -158 30 -41 141 -222 139 -227 -1 -2 14 -37 33 -78 19 -41 37 -85 40 -98
2 -12 14 -49 25 -82 20 -59 27 -84 36 -140 3 -16 7 -36 9 -43 10 -29 20 -177
20 -297 -1 -149 -9 -242 -31 -335 -3 -14 -8 -36 -11 -50 -2 -14 -15 -59 -29
-100 -13 -41 -24 -80 -24 -87 0 -7 -5 -13 -12 -13 -6 0 -9 -3 -5 -6 8 -8 -54
-142 -111 -238 -69 -119 -153 -228 -250 -325 -141 -141 -261 -229 -427 -314
-208 -106 -457 -172 -668 -178 -41 -1 -63 4 -76 15 -10 9 -23 16 -29 16 -10 0
-30 -53 -38 -105 -7 -45 -126 -490 -132 -496 -4 -3 -56 -23 -117 -43 -60 -21
-117 -40 -125 -43 -8 -3 -18 -6 -22 -5 -4 1 -21 -44 -38 -101 -92 -295 -87
-278 -90 -292 -1 -5 -11 -32 -21 -60 -10 -27 -19 -57 -19 -66 0 -21 -16 -34
-64 -54 l-37 -15 7 27 c4 16 38 122 76 237 54 163 66 211 56 217 -25 16 -34 9
-47 -38 -8 -27 -16 -52 -20 -58 -3 -5 -6 -16 -7 -23 -2 -8 -6 -21 -10 -30 -4
-9 -8 -23 -10 -30 -1 -8 -6 -21 -10 -30 -4 -9 -8 -22 -9 -28 -2 -7 -23 -71
-46 -144 l-44 -132 -45 -20 c-25 -11 -46 -21 -47 -22 -2 -2 -93 -293 -98 -311
-1 -5 -5 -22 -10 -38 -6 -23 0 -38 44 -97 28 -39 51 -74 51 -79 0 -5 6 -14 14
-20 11 -9 11 -21 4 -58 -12 -52 -19 -62 -67 -89 -39 -22 -56 -33 -93 -58 -27
-17 -27 -19 -12 -45 14 -24 13 -33 -25 -151 -62 -193 -72 -220 -84 -220 -7 0
-24 -10 -39 -23 -22 -19 -56 -103 -83 -207 -1 -3 -13 -42 -28 -87 -24 -75 -25
-84 -12 -111 14 -26 13 -35 -6 -88 -12 -32 -21 -65 -22 -71 0 -7 -5 -13 -10
-13 -6 0 -8 -2 -5 -6 5 -4 -10 -52 -45 -144 -3 -8 -17 -51 -31 -95 -15 -44
-30 -85 -34 -91 -6 -10 -276 -154 -287 -154 -10 0 -4 31 23 117 16 48 37 115
46 148 10 33 20 67 23 75 3 8 7 20 8 25 2 6 12 39 23 75 12 36 42 133 67 215
26 83 49 157 52 165 3 8 7 25 9 38 1 13 7 29 12 35 5 7 12 26 16 42 4 17 18
66 32 110 15 44 27 87 29 95 2 8 11 38 20 65 10 28 18 55 19 60 2 6 17 57 35
115 18 58 40 128 48 155 8 28 17 57 21 65 6 18 6 15 20 65 6 22 23 76 38 120
14 44 28 91 30 104 3 14 7 28 9 31 2 4 25 74 50 156 25 82 58 187 73 234 14
47 26 87 27 90 0 3 3 10 6 15 5 8 17 51 24 85 0 3 9 30 19 60 22 70 25 80 25
83 0 1 12 36 26 77 14 41 25 76 25 78 -1 1 15 54 35 116 20 63 38 120 39 128
1 7 19 66 40 130 21 65 39 123 40 130 2 7 6 20 9 28 3 8 24 74 46 145 22 72
42 138 46 147 8 19 -29 45 -40 28 -5 -8 -33 -93 -41 -122 -1 -5 -2 -9 -4 -10
-1 -2 -3 -10 -5 -18 -2 -8 -36 -118 -75 -245 -40 -126 -76 -243 -80 -260 -5
-16 -25 -82 -45 -145 -20 -63 -38 -122 -40 -130 -2 -8 -4 -16 -5 -17 -2 -2 -3
-6 -4 -10 -1 -5 -15 -48 -31 -98 -16 -49 -30 -96 -32 -102 -6 -25 -10 -38 -16
-53 -7 -18 -69 -221 -71 -235 -1 -5 -12 -41 -25 -80 -28 -87 -30 -93 -32 -103
-1 -4 -5 -17 -10 -30 -5 -12 -11 -33 -14 -45 -2 -12 -32 -107 -65 -212 -34
-104 -63 -197 -64 -205 -2 -8 -12 -40 -21 -70 -10 -30 -28 -91 -42 -135 -14
-44 -27 -87 -30 -95 -3 -8 -7 -22 -9 -30 -2 -8 -15 -51 -30 -95 -14 -44 -27
-84 -28 -90 -5 -22 -49 -163 -63 -200 -8 -22 -14 -41 -14 -43 1 -1 -9 -35 -21
-75 -12 -39 -23 -74 -23 -77 -1 -3 -4 -12 -8 -20 -5 -13 -38 -124 -42 -140 0
-3 -14 -45 -29 -95 -16 -49 -29 -96 -29 -102 0 -7 -3 -13 -7 -13 -4 0 -7 -6
-7 -12 -1 -33 -66 -218 -76 -218 -17 0 -147 36 -153 43 -3 3 2 21 10 41 8 20
13 36 11 36 -2 0 10 39 26 87 16 49 31 97 33 108 3 11 11 39 20 63 8 23 13 42
11 42 -2 0 4 20 15 45 11 25 17 45 14 45 -3 0 -2 6 3 12 4 7 8 15 8 18 4 22
19 77 26 90 4 8 20 56 34 105 15 50 45 149 68 220 23 72 41 132 42 135 1 3 4
14 7 25 4 11 25 81 48 155 22 74 47 153 55 175 7 22 21 67 31 100 9 33 32 108
51 168 19 59 36 113 37 120 2 6 6 19 9 27 3 8 20 62 37 120 18 58 43 139 57
181 13 43 26 83 27 90 3 13 6 21 23 67 3 9 6 20 5 24 -1 3 10 39 24 80 14 40
27 80 29 88 2 8 27 89 55 180 28 91 53 172 55 180 2 8 29 96 60 195 31 99 66
212 77 250 12 39 23 72 23 75 1 3 14 43 29 90 15 47 29 92 31 100 2 8 10 34
19 57 11 32 12 44 3 51 -10 8 -108 42 -120 42 -3 0 -17 -39 -32 -87 -15 -49
-42 -135 -60 -193 -28 -88 -52 -169 -61 -202 -1 -5 -3 -10 -4 -13 -1 -3 -3 -8
-4 -12 -2 -9 -56 -181 -96 -308 -16 -49 -49 -160 -75 -245 -26 -85 -50 -164
-55 -175 -4 -11 -38 -119 -75 -240 -36 -121 -80 -263 -97 -315 -16 -52 -31
-102 -33 -110 -2 -8 -14 -49 -28 -90 -26 -76 -46 -149 -47 -163 0 -4 -7 -21
-15 -37 -9 -17 -13 -30 -9 -30 4 0 1 -7 -6 -15 -7 -8 -10 -15 -6 -15 3 0 -3
-24 -13 -52 -11 -29 -25 -73 -32 -98 -15 -54 -14 -51 -22 -70 -3 -8 -27 -85
-52 -170 -26 -85 -58 -188 -71 -229 -13 -41 -26 -83 -28 -95 -2 -12 -13 -46
-25 -76 -11 -30 -22 -67 -25 -82 -2 -15 -7 -32 -11 -38 -3 -5 -8 -18 -10 -27
-1 -10 -19 -67 -38 -128 -20 -60 -42 -132 -50 -160 l-14 -50 -31 54 c-30 52
-30 55 -16 100 8 25 19 64 25 86 6 22 19 66 30 97 11 31 22 67 24 80 3 12 13
50 24 83 11 33 25 80 32 105 15 54 14 51 22 70 7 18 66 218 72 243 3 15 36
122 77 255 5 18 11 41 13 50 2 9 4 18 5 20 2 1 3 5 5 10 1 4 4 14 7 22 3 8 15
47 26 85 28 96 81 272 94 315 6 19 10 35 9 35 -1 0 10 34 24 75 14 41 26 76
26 77 0 2 1 8 3 15 26 82 108 357 111 371 2 10 18 64 35 120 75 245 89 294 96
322 4 17 9 35 13 40 3 6 6 15 8 20 7 32 14 57 33 119 12 38 23 76 25 85 2 9
12 43 23 76 11 33 37 116 57 185 20 69 43 143 51 165 9 22 15 40 14 40 -1 0 4
20 11 45 7 25 13 50 14 55 2 6 14 46 28 90 39 123 40 114 -35 185 -38 34 -68
66 -68 69 0 3 29 16 65 29 l64 22 23 -23 c41 -40 165 -137 176 -137 6 0 12 -3
14 -7 18 -42 353 -192 483 -218 261 -50 440 -51 650 -5 50 11 97 22 105 23 8
2 22 6 30 9 8 3 44 16 80 29 108 37 231 100 317 162 29 20 55 37 57 37 21 0
247 225 307 305 51 68 129 196 129 211 0 6 6 16 13 22 6 7 12 16 12 20 1 4 11
29 23 57 23 50 78 220 86 265 2 14 7 36 10 50 18 75 32 320 19 320 -5 0 -10
-24 -10 -52 0 -64 -11 -168 -23 -223 -5 -22 -11 -54 -15 -72 -3 -18 -10 -45
-16 -60 -6 -15 -12 -35 -14 -43 -9 -41 -86 -213 -128 -285 -29 -49 -61 -100
-67 -105 -3 -3 -18 -23 -35 -45 -30 -40 -76 -95 -106 -124 -43 -44 -138 -128
-158 -141 -13 -8 -29 -20 -35 -26 -43 -40 -280 -165 -343 -180 -15 -4 -32 -10
-38 -14 -10 -7 -82 -28 -120 -35 -11 -2 -22 -4 -25 -5 -3 -1 -8 -2 -11 -2 -4
1 -22 -3 -40 -8 -71 -21 -274 -29 -404 -17 -113 10 -286 50 -365 84 -168 73
-255 122 -372 210 -100 76 -99 70 -13 113 41 22 90 50 108 64 19 15 37 26 42
26 17 0 186 140 265 219 96 97 135 141 170 191 13 19 27 37 30 40 14 12 110
166 110 178 0 6 5 12 10 12 6 0 10 4 10 10 0 5 17 45 39 88 63 131 118 300
137 426 3 22 7 43 9 46 1 3 6 32 10 65 8 73 11 78 38 63 86 -47 267 -25 359
45 139 106 193 300 126 452 -43 99 -136 185 -233 216 -94 30 -246 11 -316 -41
l-27 -19 -36 102 c-20 56 -54 138 -75 182 -22 44 -37 82 -35 84 2 2 35 5 74 6
39 1 73 5 77 8 3 4 10 4 16 0 6 -3 47 -7 91 -9 45 -2 92 -6 106 -10 14 -3 36
-8 50 -10 51 -9 156 -36 174 -46 13 -7 22 -6 30 3 8 9 8 10 -1 5 -6 -3 -32 3
-57 14 -25 10 -46 17 -46 15 0 -3 -12 0 -27 6 -16 6 -39 12 -53 14 -25 4 -57
10 -107 21 -16 3 -100 7 -188 9 l-160 4 -52 78 c-29 43 -49 79 -45 81 51 17
394 23 462 7z m-1489 -478 c-5 -13 -9 -55 -8 -93 1 -106 43 -188 127 -248 93
-67 227 -77 318 -25 41 24 52 24 26 1 -35 -32 -69 -49 -123 -62 -110 -26 -228
13 -304 101 -23 27 -42 52 -43 56 0 5 -7 22 -14 38 -20 44 -19 172 2 218 18
40 33 51 19 14z m1824 -454 c-54 -181 -257 -268 -432 -186 -24 11 -33 22 -33
39 l0 24 41 -22 c42 -21 179 -35 203 -20 6 3 13 7 16 7 18 1 80 34 104 55 35
31 87 96 90 113 5 21 18 48 22 44 2 -2 -3 -26 -11 -54z m-5499 -2485 c-2 -18
-4 -36 -5 -39 0 -4 -21 -22 -46 -41 -45 -35 -72 -40 -129 -22 -18 6 -18 7 5
25 13 10 27 19 31 19 3 0 37 20 75 45 37 25 69 45 70 45 2 0 1 -15 -1 -32z
m-726 -436 c0 -10 -3 -22 -7 -26 -4 -3 -7 -14 -8 -24 -4 -41 -17 -82 -27 -82
-6 0 -36 -12 -67 -27 -31 -15 -58 -28 -61 -28 -3 -1 -18 -7 -33 -13 -34 -15
-60 -14 -109 1 l-37 12 116 70 c64 39 135 81 157 93 23 13 45 28 51 33 15 14
25 11 25 -9z m4702 -1680 c13 -22 15 -37 9 -63 -5 -19 -12 -46 -15 -61 -4 -15
-15 -30 -28 -34 -12 -3 -28 -13 -36 -20 -22 -22 -31 -16 -22 14 5 15 16 52 25
82 20 66 38 110 45 110 3 0 13 -13 22 -28z m-264 -843 c28 -55 30 -64 18 -88
-7 -14 -29 -60 -49 -101 -32 -66 -42 -78 -87 -102 l-50 -27 6 27 c6 24 35 110
51 152 4 8 7 17 8 20 7 29 38 119 46 132 5 10 9 25 9 33 0 31 18 13 48 -46z"/>
<path d="M6810 6726 c0 -2 8 -10 18 -17 15 -13 16 -12 3 4 -13 16 -21 21 -21
13z"/>
<path d="M6825 5429 c-4 -6 -5 -12 -2 -15 2 -3 7 2 10 11 7 17 1 20 -8 4z"/>
<path d="M6805 5389 c-4 -6 -5 -12 -2 -15 2 -3 7 2 10 11 7 17 1 20 -8 4z"/>
<path d="M7764 6846 c11 -9 24 -16 30 -16 12 0 7 5 -24 19 -24 11 -24 11 -6
-3z"/>
<path d="M7867 6799 c7 -7 15 -10 18 -7 3 3 -2 9 -12 12 -14 6 -15 5 -6 -5z"/>
<path d="M8655 5780 c3 -5 8 -10 11 -10 2 0 4 5 4 10 0 6 -5 10 -11 10 -5 0
-7 -4 -4 -10z"/>
<path d="M8672 5710 c0 -14 2 -19 5 -12 2 6 2 18 0 25 -3 6 -5 1 -5 -13z"/>
<path d="M8675 5670 c-3 -5 -1 -10 4 -10 6 0 11 5 11 10 0 6 -2 10 -4 10 -3 0
-8 -4 -11 -10z"/>
<path d="M8682 5608 c3 -31 1 -48 -6 -48 -6 0 -5 -4 3 -9 7 -5 10 -14 7 -20
-4 -6 -2 -11 3 -11 11 0 5 120 -6 130 -3 3 -3 -16 -1 -42z"/>
</g>
</svg>
